<?xml version="1.0" encoding="UTF-8"?><svg id="Layer_2" xmlns="http://www.w3.org/2000/svg" viewBox="0 0 207.99 207.99"><defs><style>.cls-1{fill:#999;}.cls-2{fill:#666;}</style></defs><g id="Layer_1-2"><path class="cls-1" d="m67.89,122.89h150v35c0,2.76-2.24,5-5,5H72.89c-2.76,0-5-2.24-5-5v-35h0Z" transform="translate(-59.19 142.89) rotate(-45)"/><path class="cls-2" d="m142.89,93.39l28.28-28.28L107.53,1.46c-1.95-1.95-5.12-1.95-7.07,0L1.46,100.46c-1.95,1.95-1.95,5.12,0,7.07l63.64,63.64,28.28-28.28-35.36-35.36c-1.95-1.95-1.95-5.12,0-7.07l42.43-42.43c1.95-1.95,5.12-1.95,7.07,0l35.36,35.36Z"/><path class="cls-2" d="m88.99,83.99h35v40h-35c-2.76,0-5-2.24-5-5v-30c0-2.76,2.24-5,5-5Z" transform="translate(103.99 -43.08) rotate(45)"/></g></svg>